<?xml version="1.0" standalone="no"?>
<!DOCTYPE svg PUBLIC "-//W3C//DTD SVG 20010904//EN"
 "http://www.w3.org/TR/2001/REC-SVG-20010904/DTD/svg10.dtd">
<svg version="1.0" xmlns="http://www.w3.org/2000/svg"
 width="154.000000pt" height="154.000000pt" viewBox="0 0 154.000000 154.000000"
 preserveAspectRatio="xMidYMid meet">
<metadata>
Created by potrace 1.11, written by Peter Selinger 2001-2013
</metadata>
<g transform="translate(0.000000,154.000000) scale(0.100000,-0.100000)"
fill="#000000" stroke="none">
<path d="M1350 865 l0 -465 -676 0 c-536 0 -675 -3 -671 -12 3 -10 145 -13
663 -14 362 -1 665 -2 672 -3 8 -1 12 -24 12 -81 0 -64 3 -80 15 -80 12 0 15
15 14 76 -1 41 2 79 6 82 4 4 34 7 68 7 89 0 88 19 0 23 l-73 3 -1 32 c0 18 0
227 -1 465 0 362 -2 432 -14 432 -12 0 -14 -74 -14 -465z"/>
<path d="M262 1028 l3 -43 95 -2 c52 0 100 -1 106 -2 7 -1 11 -88 11 -273 1
-150 2 -278 2 -284 1 -6 16 -9 34 -8 17 1 37 3 43 3 8 1 12 74 12 259 0 141 1
268 1 282 l1 25 280 0 c154 0 280 -3 280 -7 0 -5 -5 -8 -11 -8 -24 0 -145
-137 -177 -200 -38 -77 -60 -180 -55 -269 3 -70 11 -85 46 -86 23 -2 23 0 21
94 -3 177 61 307 201 406 104 73 94 94 97 -222 l3 -277 28 1 c15 1 32 1 37 2
6 1 10 117 10 326 l0 325 -536 0 -535 0 3 -42z"/>
<path d="M659 901 l30 -38 -30 -41 -30 -41 23 -3 c15 -3 30 5 45 22 l22 25 15
-21 c15 -20 60 -37 70 -26 3 3 -8 22 -24 42 -17 21 -30 41 -30 45 0 4 12 21
27 39 l26 31 -28 3 c-25 3 -37 -5 -49 -33 -2 -5 -11 0 -21 13 -10 14 -27 22
-46 22 l-31 0 31 -39z"/>
<path d="M1067 703 c-18 -22 -23 -50 -14 -80 13 -37 74 -52 105 -26 32 27 37
64 12 96 -25 32 -78 37 -103 10z"/>
<path d="M672 634 c-24 -17 -29 -43 -10 -62 9 -9 6 -18 -15 -40 -34 -35 -34
-65 -1 -91 28 -22 88 -28 113 -12 9 6 22 6 34 0 13 -7 23 -7 33 2 18 15 18 29
-1 29 -17 0 -19 14 -5 40 8 15 5 19 -15 22 -14 3 -25 1 -25 -5 0 -6 -9 -2 -19
7 -18 17 -18 18 5 41 30 30 30 39 2 65 -26 24 -65 26 -96 4z m63 -35 c0 -7 -8
-15 -17 -17 -18 -3 -25 18 -11 32 10 10 28 1 28 -15z m-11 -101 c20 -29 20
-35 -3 -41 -38 -10 -65 25 -39 51 17 17 25 15 42 -10z"/>
</g>
</svg>
